<svg width="145" height="24" viewBox="0 0 145 24" fill="none" xmlns="http://www.w3.org/2000/svg">
<path d="M5.97916 16C6.09375 15.51 5.88541 14.81 5.52083 14.46L2.98958 12.03C2.19791 11.27 1.88541 10.46 2.11458 9.76C2.35416 9.06 3.09375 8.58 4.19791 8.4L7.44791 7.88C7.91666 7.8 8.48958 7.4 8.70833 6.99L10.5 3.54C11.0208 2.55 11.7292 2 12.5 2C13.2708 2 13.9792 2.55 14.5 3.54L16.2917 6.99C16.4271 7.25 16.7083 7.5 17.0104 7.67L5.79166 18.44C5.64583 18.58 5.39583 18.45 5.4375 18.25L5.97916 16Z" fill="#BCDB00"/>
<path d="M19.4792 14.4599C19.1042 14.8199 18.8958 15.5099 19.0208 15.9999L19.7396 19.0099C20.0417 20.2599 19.8542 21.1999 19.2083 21.6499C18.9479 21.8299 18.6354 21.9199 18.2708 21.9199C17.7396 21.9199 17.1146 21.7299 16.4271 21.3399L13.375 19.5999C12.8958 19.3299 12.1042 19.3299 11.625 19.5999L8.57291 21.3399C7.41666 21.9899 6.42707 22.0999 5.79166 21.6499C5.55207 21.4799 5.37499 21.2499 5.26041 20.9499L17.9271 8.7899C18.4062 8.3299 19.0833 8.1199 19.7396 8.2299L20.7917 8.3999C21.8958 8.5799 22.6354 9.0599 22.875 9.7599C23.1042 10.4599 22.7917 11.2699 22 12.0299L19.4792 14.4599Z" fill="#BCDB00"/>
<path d="M35.9792 16C36.0937 15.51 35.8854 14.81 35.5208 14.46L32.9896 12.03C32.1979 11.27 31.8854 10.46 32.1146 9.76C32.3542 9.06 33.0937 8.58 34.1979 8.4L37.4479 7.88C37.9167 7.8 38.4896 7.4 38.7083 6.99L40.5 3.54C41.0208 2.55 41.7292 2 42.5 2C43.2708 2 43.9792 2.55 44.5 3.54L46.2917 6.99C46.4271 7.25 46.7083 7.5 47.0104 7.67L35.7917 18.44C35.6458 18.58 35.3958 18.45 35.4375 18.25L35.9792 16Z" fill="#BCDB00"/>
<path d="M49.4792 14.4599C49.1042 14.8199 48.8958 15.5099 49.0208 15.9999L49.7396 19.0099C50.0417 20.2599 49.8542 21.1999 49.2083 21.6499C48.9479 21.8299 48.6354 21.9199 48.2708 21.9199C47.7396 21.9199 47.1146 21.7299 46.4271 21.3399L43.375 19.5999C42.8958 19.3299 42.1042 19.3299 41.625 19.5999L38.5729 21.3399C37.4167 21.9899 36.4271 22.0999 35.7917 21.6499C35.5521 21.4799 35.375 21.2499 35.2604 20.9499L47.9271 8.7899C48.4062 8.3299 49.0833 8.1199 49.7396 8.2299L50.7917 8.3999C51.8958 8.5799 52.6354 9.0599 52.875 9.7599C53.1042 10.4599 52.7917 11.2699 52 12.0299L49.4792 14.4599Z" fill="#BCDB00"/>
<path d="M65.9792 16C66.0937 15.51 65.8854 14.81 65.5208 14.46L62.9896 12.03C62.1979 11.27 61.8854 10.46 62.1146 9.76C62.3542 9.06 63.0937 8.58 64.1979 8.4L67.4479 7.88C67.9167 7.8 68.4896 7.4 68.7083 6.99L70.5 3.54C71.0208 2.55 71.7292 2 72.5 2C73.2708 2 73.9792 2.55 74.5 3.54L76.2917 6.99C76.4271 7.25 76.7083 7.5 77.0104 7.67L65.7917 18.44C65.6458 18.58 65.3958 18.45 65.4375 18.25L65.9792 16Z" fill="#BCDB00"/>
<path d="M79.4792 14.4599C79.1042 14.8199 78.8958 15.5099 79.0208 15.9999L79.7396 19.0099C80.0417 20.2599 79.8542 21.1999 79.2083 21.6499C78.9479 21.8299 78.6354 21.9199 78.2708 21.9199C77.7396 21.9199 77.1146 21.7299 76.4271 21.3399L73.375 19.5999C72.8958 19.3299 72.1042 19.3299 71.625 19.5999L68.5729 21.3399C67.4167 21.9899 66.4271 22.0999 65.7917 21.6499C65.5521 21.4799 65.375 21.2499 65.2604 20.9499L77.9271 8.7899C78.4062 8.3299 79.0833 8.1199 79.7396 8.2299L80.7917 8.3999C81.8958 8.5799 82.6354 9.0599 82.875 9.7599C83.1042 10.4599 82.7917 11.2699 82 12.0299L79.4792 14.4599Z" fill="#BCDB00"/>
<path d="M95.9792 16C96.0937 15.51 95.8854 14.81 95.5208 14.46L92.9896 12.03C92.1979 11.27 91.8854 10.46 92.1146 9.76C92.3542 9.06 93.0937 8.58 94.1979 8.4L97.4479 7.88C97.9167 7.8 98.4896 7.4 98.7083 6.99L100.5 3.54C101.021 2.55 101.729 2 102.5 2C103.271 2 103.979 2.55 104.5 3.54L106.292 6.99C106.427 7.25 106.708 7.5 107.01 7.67L95.7917 18.44C95.6458 18.58 95.3958 18.45 95.4375 18.25L95.9792 16Z" fill="#BCDB00"/>
<path d="M109.479 14.4599C109.104 14.8199 108.896 15.5099 109.021 15.9999L109.74 19.0099C110.042 20.2599 109.854 21.1999 109.208 21.6499C108.948 21.8299 108.635 21.9199 108.271 21.9199C107.74 21.9199 107.115 21.7299 106.427 21.3399L103.375 19.5999C102.896 19.3299 102.104 19.3299 101.625 19.5999L98.5729 21.3399C97.4167 21.9899 96.4271 22.0999 95.7917 21.6499C95.5521 21.4799 95.375 21.2499 95.2604 20.9499L107.927 8.7899C108.406 8.3299 109.083 8.1199 109.74 8.2299L110.792 8.3999C111.896 8.5799 112.635 9.0599 112.875 9.7599C113.104 10.4599 112.792 11.2699 112 12.0299L109.479 14.4599Z" fill="#BCDB00"/>
<path d="M125.979 16C126.094 15.51 125.885 14.81 125.521 14.46L122.99 12.03C122.198 11.27 121.885 10.46 122.115 9.76C122.354 9.06 123.094 8.58 124.198 8.4L127.448 7.88C127.917 7.8 128.49 7.4 128.708 6.99L130.5 3.54C131.021 2.55 131.729 2 132.5 2C133.271 2 133.979 2.55 134.5 3.54L136.292 6.99C136.427 7.25 136.708 7.5 137.01 7.67L125.792 18.44C125.646 18.58 125.396 18.45 125.437 18.25L125.979 16Z" fill="#BCDB00"/>
<path d="M139.479 14.4599C139.104 14.8199 138.896 15.5099 139.021 15.9999L139.74 19.0099C140.042 20.2599 139.854 21.1999 139.208 21.6499C138.948 21.8299 138.635 21.9199 138.271 21.9199C137.74 21.9199 137.115 21.7299 136.427 21.3399L133.375 19.5999C132.896 19.3299 132.104 19.3299 131.625 19.5999L128.573 21.3399C127.417 21.9899 126.427 22.0999 125.792 21.6499C125.552 21.4799 125.375 21.2499 125.26 20.9499L137.927 8.7899C138.406 8.3299 139.083 8.1199 139.74 8.2299L140.792 8.3999C141.896 8.5799 142.635 9.0599 142.875 9.7599C143.104 10.4599 142.792 11.2699 142 12.0299L139.479 14.4599Z" fill="#BCDB00"/>
</svg>
