<svg width="72" height="24" viewBox="0 0 72 24" fill="none" xmlns="http://www.w3.org/2000/svg">
<path d="M5.97916 16C6.09375 15.51 5.88541 14.81 5.52083 14.46L2.98958 12.03C2.19791 11.27 1.88541 10.46 2.11458 9.76C2.35416 9.06 3.09375 8.58 4.19791 8.4L7.44791 7.88C7.91666 7.8 8.48958 7.4 8.70833 6.99L10.5 3.54C11.0208 2.55 11.7292 2 12.5 2C13.2708 2 13.9792 2.55 14.5 3.54L16.2917 6.99C16.4271 7.25 16.7083 7.5 17.0104 7.67L5.79166 18.44C5.64583 18.58 5.39583 18.45 5.4375 18.25L5.97916 16Z" fill="#BCDB00"/>
<path d="M19.4792 14.4599C19.1042 14.8199 18.8959 15.5099 19.0209 15.9999L19.7396 19.0099C20.0417 20.2599 19.8542 21.1999 19.2084 21.6499C18.9479 21.8299 18.6354 21.9199 18.2709 21.9199C17.7396 21.9199 17.1146 21.7299 16.4271 21.3399L13.375 19.5999C12.8959 19.3299 12.1042 19.3299 11.625 19.5999L8.57294 21.3399C7.41669 21.9899 6.4271 22.0999 5.79169 21.6499C5.5521 21.4799 5.37502 21.2499 5.26044 20.9499L17.9271 8.7899C18.4063 8.3299 19.0834 8.1199 19.7396 8.2299L20.7917 8.3999C21.8959 8.5799 22.6354 9.0599 22.875 9.7599C23.1042 10.4599 22.7917 11.2699 22 12.0299L19.4792 14.4599Z" fill="#BCDB00"/>
<path d="M35.9792 16C36.0937 15.51 35.8854 14.81 35.5208 14.46L32.9896 12.03C32.1979 11.27 31.8854 10.46 32.1146 9.76C32.3542 9.06 33.0937 8.58 34.1979 8.4L37.4479 7.88C37.9167 7.8 38.4896 7.4 38.7083 6.99L40.5 3.54C41.0208 2.55 41.7292 2 42.5 2C43.2708 2 43.9792 2.55 44.5 3.54L46.2917 6.99C46.4271 7.25 46.7083 7.5 47.0104 7.67L35.7917 18.44C35.6458 18.58 35.3958 18.45 35.4375 18.25L35.9792 16Z" fill="#BCDB00"/>
<path d="M49.4792 14.4599C49.1042 14.8199 48.8959 15.5099 49.0209 15.9999L49.7396 19.0099C50.0417 20.2599 49.8542 21.1999 49.2084 21.6499C48.9479 21.8299 48.6354 21.9199 48.2709 21.9199C47.7396 21.9199 47.1146 21.7299 46.4271 21.3399L43.375 19.5999C42.8959 19.3299 42.1042 19.3299 41.625 19.5999L38.5729 21.3399C37.4167 21.9899 36.4271 22.0999 35.7917 21.6499C35.5521 21.4799 35.375 21.2499 35.2604 20.9499L47.9271 8.7899C48.4063 8.3299 49.0834 8.1199 49.7396 8.2299L50.7917 8.3999C51.8959 8.5799 52.6354 9.0599 52.875 9.7599C53.1042 10.4599 52.7917 11.2699 52 12.0299L49.4792 14.4599Z" fill="#BCDB00"/>
<path d="M65.9792 16C66.0937 15.51 65.8854 14.81 65.5208 14.46L62.9896 12.03C62.1979 11.27 61.8854 10.46 62.1146 9.76C62.3542 9.06 63.0937 8.58 64.1979 8.4L67.4479 7.88C67.9167 7.8 68.4896 7.4 68.7083 6.99L70.5 3.54C71.0208 2.55 71.7292 2 72.5 2C73.2708 2 73.9792 2.55 74.5 3.54L76.2917 6.99C76.4271 7.25 76.7083 7.5 77.0104 7.67L65.7917 18.44C65.6458 18.58 65.3958 18.45 65.4375 18.25L65.9792 16Z" fill="#BCDB00"/>
<path d="M79.4792 14.4599C79.1042 14.8199 78.8959 15.5099 79.0209 15.9999L79.7396 19.0099C80.0417 20.2599 79.8542 21.1999 79.2084 21.6499C78.9479 21.8299 78.6354 21.9199 78.2709 21.9199C77.7396 21.9199 77.1146 21.7299 76.4271 21.3399L73.375 19.5999C72.8959 19.3299 72.1042 19.3299 71.625 19.5999L68.5729 21.3399C67.4167 21.9899 66.4271 22.0999 65.7917 21.6499C65.5521 21.4799 65.375 21.2499 65.2604 20.9499L77.9271 8.7899C78.4063 8.3299 79.0834 8.1199 79.7396 8.2299L80.7917 8.3999C81.8959 8.5799 82.6354 9.0599 82.875 9.7599C83.1042 10.4599 82.7917 11.2699 82 12.0299L79.4792 14.4599Z" fill="#BCDB00"/>
</svg>
