<svg width="114" height="27" viewBox="0 0 114 27" fill="none" xmlns="http://www.w3.org/2000/svg">
<path d="M0 26.4909H25.65V0.840881H0V26.4909ZM20.713 11.1979H15.293V5.77788H20.713V11.1979ZM4.936 5.77788H10.359V16.1339H20.713V21.5539H4.936V5.77788ZM42.353 0.840881C39.8164 0.840881 37.3368 1.59306 35.2278 3.00229C33.1187 4.41152 31.4749 6.41451 30.5042 8.75798C29.5335 11.1015 29.2796 13.6801 29.7744 16.1679C30.2693 18.6557 31.4907 20.9409 33.2843 22.7345C35.0779 24.5282 37.3631 25.7496 39.8509 26.2445C42.3388 26.7393 44.9174 26.4854 47.2609 25.5147C49.6044 24.544 51.6073 22.9002 53.0166 20.7911C54.4258 18.682 55.178 16.2024 55.178 13.6659C55.174 10.2657 53.8215 7.00592 51.4172 4.60163C49.0129 2.19733 45.7532 0.844851 42.353 0.840881ZM42.353 21.5539C40.7929 21.5539 39.2678 21.0913 37.9706 20.2245C36.6735 19.3578 35.6624 18.1259 35.0654 16.6845C34.4684 15.2432 34.3122 13.6572 34.6165 12.127C34.9209 10.5969 35.6722 9.19138 36.7753 8.08822C37.8785 6.98507 39.284 6.23381 40.8141 5.92945C42.3442 5.62509 43.9302 5.7813 45.3716 6.37832C46.8129 6.97534 48.0449 7.98637 48.9116 9.28358C49.7784 10.5807 50.241 12.1058 50.241 13.6659C50.2378 15.757 49.4057 17.7615 47.9271 19.2401C46.4485 20.7187 44.444 21.5507 42.353 21.5539ZM101.072 0.840881C98.535 0.840691 96.0557 1.59269 93.9465 3.0018C91.8373 4.41091 90.1934 6.41383 89.2225 8.75728C88.2517 11.1007 87.9975 13.6795 88.4923 16.1673C88.987 18.6552 90.2084 20.9405 92.002 22.7342C93.7955 24.5279 96.0807 25.7495 98.569 26.2444C101.056 26.7393 103.635 26.4854 105.979 25.5148C108.322 24.5441 110.325 22.9003 111.734 20.7912C113.144 18.6821 113.896 16.2025 113.896 13.6659C113.892 10.2659 112.54 7.00624 110.136 4.60198C107.732 2.19771 104.472 0.845121 101.072 0.840881ZM101.072 21.5539C99.512 21.5541 97.987 21.0916 96.6894 20.225C95.3921 19.3584 94.3809 18.1265 93.7837 16.6852C93.1865 15.2439 93.0302 13.6578 93.3344 12.1276C93.6387 10.5975 94.3899 9.19188 95.493 8.08858C96.5961 6.98532 98.002 6.23396 99.532 5.92952C101.062 5.62508 102.648 5.78123 104.089 6.37823C105.531 6.97522 106.763 7.98624 107.63 9.28348C108.496 10.5807 108.959 12.1058 108.959 13.6659C108.956 15.7568 108.124 17.7611 106.645 19.2397C105.167 20.7183 103.163 21.5505 101.072 21.5539ZM71.712 0.840881C69.1754 0.840881 66.6958 1.59306 64.5868 3.00229C62.4777 4.41152 60.8339 6.41451 59.8632 8.75798C58.8925 11.1015 58.6386 13.6801 59.1334 16.1679C59.6283 18.6557 60.8497 20.9409 62.6433 22.7345C64.4369 24.5282 66.7221 25.7496 69.2099 26.2445C71.6977 26.7393 74.2764 26.4854 76.6199 25.5147C78.9634 24.544 80.9663 22.9002 82.3756 20.7911C83.7848 18.682 84.537 16.2024 84.537 13.6659C84.533 10.2657 83.1805 7.00592 80.7762 4.60163C78.3719 2.19733 75.1122 0.844851 71.712 0.840881ZM71.712 21.5539C70.2584 21.5546 68.833 21.1537 67.5929 20.3954C66.3529 19.6371 65.3464 18.551 64.6847 17.2568C64.0231 15.9626 63.7318 14.5107 63.8432 13.0615C63.9546 11.6122 64.4642 10.2219 65.3159 9.04398C66.1676 7.86614 67.3282 6.94649 68.6695 6.38659C70.0109 5.82668 71.4809 5.6483 72.9172 5.87112C74.3536 6.09395 75.7004 6.70931 76.8091 7.6493C77.9178 8.58928 78.7452 9.81738 79.2 11.1979H71.712V16.1339H79.2C78.6791 17.7092 77.6755 19.0806 76.3314 20.0534C74.9874 21.0263 73.3712 21.5512 71.712 21.5539Z" fill="#394149"/>
</svg>
