<svg width="31" height="31" viewBox="0 0 31 31" fill="none" xmlns="http://www.w3.org/2000/svg">
<path fill-rule="evenodd" clip-rule="evenodd" d="M9.10977 0.093C10.7626 0.0169091 11.2896 0 15.5 0C19.7104 0 20.2374 0.0183182 21.8888 0.093C23.5403 0.167682 24.6675 0.431182 25.6539 0.813045C26.6868 1.20336 27.6238 1.8135 28.3988 2.60259C29.1879 3.37618 29.7966 4.31182 30.1855 5.34609C30.5688 6.33245 30.8309 7.45973 30.907 9.10836C30.9831 10.764 31 11.291 31 15.5C31 19.7104 30.9817 20.2374 30.907 21.8902C30.8323 23.5389 30.5688 24.6661 30.1855 25.6525C29.7966 26.6869 29.1869 27.6241 28.3988 28.3988C27.6238 29.1879 26.6868 29.7966 25.6539 30.1855C24.6675 30.5688 23.5403 30.8309 21.8916 30.907C20.2374 30.9831 19.7104 31 15.5 31C11.2896 31 10.7626 30.9817 9.10977 30.907C7.46114 30.8323 6.33386 30.5688 5.3475 30.1855C4.31312 29.7966 3.37593 29.1869 2.60118 28.3988C1.81263 27.6248 1.2024 26.688 0.813045 25.6539C0.431182 24.6675 0.169091 23.5403 0.093 21.8916C0.0169091 20.236 0 19.709 0 15.5C0 11.2896 0.0183182 10.7626 0.093 9.11118C0.167682 7.45973 0.431182 6.33245 0.813045 5.34609C1.20297 4.31193 1.81367 3.37521 2.60259 2.60118C3.37624 1.8128 4.31248 1.20258 5.34609 0.813045C6.33245 0.431182 7.45973 0.169091 9.10836 0.093H9.10977ZM21.7634 2.883C20.1289 2.80832 19.6385 2.79282 15.5 2.79282C11.3615 2.79282 10.8711 2.80832 9.23659 2.883C7.72464 2.95205 6.90455 3.20427 6.35782 3.41705C5.63495 3.69886 5.11782 4.03282 4.57532 4.57532C4.06106 5.07562 3.6653 5.68467 3.41705 6.35782C3.20427 6.90455 2.95205 7.72464 2.883 9.23659C2.80832 10.8711 2.79282 11.3615 2.79282 15.5C2.79282 19.6385 2.80832 20.1289 2.883 21.7634C2.95205 23.2754 3.20427 24.0955 3.41705 24.6422C3.66505 25.3143 4.061 25.9245 4.57532 26.4247C5.07555 26.939 5.68568 27.335 6.35782 27.583C6.90455 27.7957 7.72464 28.048 9.23659 28.117C10.8711 28.1917 11.3601 28.2072 15.5 28.2072C19.6399 28.2072 20.1289 28.1917 21.7634 28.117C23.2754 28.048 24.0955 27.7957 24.6422 27.583C25.365 27.3011 25.8822 26.9672 26.4247 26.4247C26.939 25.9245 27.335 25.3143 27.583 24.6422C27.7957 24.0955 28.048 23.2754 28.117 21.7634C28.1917 20.1289 28.2072 19.6385 28.2072 15.5C28.2072 11.3615 28.1917 10.8711 28.117 9.23659C28.048 7.72464 27.7957 6.90455 27.583 6.35782C27.3011 5.63495 26.9672 5.11782 26.4247 4.57532C25.9244 4.0611 25.3153 3.66534 24.6422 3.41705C24.0955 3.20427 23.2754 2.95205 21.7634 2.883ZM13.5202 20.2782C14.6259 20.7385 15.857 20.8006 17.0034 20.454C18.1498 20.1073 19.1402 19.3735 19.8056 18.3777C20.471 17.3819 20.7701 16.186 20.6517 14.9943C20.5333 13.8025 20.0049 12.6888 19.1566 11.8434C18.6158 11.303 17.962 10.8892 17.2421 10.6318C16.5222 10.3744 15.7542 10.2798 14.9934 10.3549C14.2326 10.4299 13.4979 10.6727 12.8422 11.0658C12.1865 11.4588 11.626 11.9924 11.2013 12.6281C10.7765 13.2637 10.498 13.9856 10.3857 14.7419C10.2735 15.4981 10.3303 16.2698 10.552 17.0014C10.7738 17.733 11.155 18.4064 11.6683 18.973C12.1815 19.5396 12.814 19.9854 13.5202 20.2782ZM9.86645 9.86645C10.6063 9.12665 11.4845 8.5398 12.4511 8.13942C13.4178 7.73904 14.4538 7.53296 15.5 7.53296C16.5462 7.53296 17.5822 7.73904 18.5489 8.13942C19.5155 8.5398 20.3937 9.12665 21.1335 9.86645C21.8734 10.6063 22.4602 11.4845 22.8606 12.4511C23.261 13.4178 23.467 14.4538 23.467 15.5C23.467 16.5462 23.261 17.5822 22.8606 18.5489C22.4602 19.5155 21.8734 20.3937 21.1335 21.1335C19.6394 22.6277 17.613 23.467 15.5 23.467C13.387 23.467 11.3606 22.6277 9.86645 21.1335C8.37234 19.6394 7.53296 17.613 7.53296 15.5C7.53296 13.387 8.37234 11.3606 9.86645 9.86645ZM25.234 8.71945C25.4173 8.54652 25.5641 8.33855 25.6656 8.10787C25.7671 7.87719 25.8213 7.62849 25.825 7.37649C25.8287 7.12449 25.7817 6.87432 25.687 6.64078C25.5923 6.40724 25.4516 6.19508 25.2734 6.01687C25.0952 5.83866 24.883 5.69802 24.6495 5.60327C24.416 5.50853 24.1658 5.4616 23.9138 5.46528C23.6618 5.46895 23.4131 5.52315 23.1824 5.62466C22.9517 5.72618 22.7438 5.87294 22.5708 6.05627C22.2345 6.41281 22.0503 6.8864 22.0575 7.37649C22.0646 7.86659 22.2625 8.3346 22.6091 8.68119C22.9557 9.02777 23.4237 9.22564 23.9138 9.23279C24.4039 9.23993 24.8775 9.05579 25.234 8.71945Z" fill="#00164F"/>
</svg>
