<svg width="49" height="50" viewBox="0 0 49 50" fill="none" xmlns="http://www.w3.org/2000/svg">
<path d="M47.9893 3.3375L47.6893 0.1875L44.6893 1.1875C39.5479 2.97386 34.0575 3.52204 28.6643 2.7875C22.9972 1.90803 17.1966 2.68954 11.9643 5.0375C9.19051 6.21862 6.7562 8.07479 4.883 10.437C3.00981 12.7993 1.75723 15.5925 1.23932 18.5625C0.567765 22.3992 0.903722 26.3446 2.21432 30.0125C3.0582 28.1077 4.04432 26.2692 5.16432 24.5125C7.70482 20.7746 11.225 17.8079 15.3393 15.9375C19.3029 14.1278 23.6353 13.2716 27.9893 13.4375C23.8444 14.0712 19.8768 15.5612 16.3393 17.8125C14.633 18.8846 13.0704 20.17 11.6893 21.6375C10.3685 23.1043 9.20387 24.7046 8.21432 26.4125C6.35564 29.9825 5.03311 33.8069 4.28932 37.7625C3.4876 41.7308 3.05243 45.7645 2.98932 49.8125H7.98932C8.22431 46.1821 8.71722 42.573 9.46432 39.0125C12.9329 40.8855 16.8227 41.8407 20.7643 41.7875C24.4405 41.785 28.0789 41.0454 31.4643 39.6125C50.4893 31.4875 47.9893 4.4625 47.9893 3.3375Z" fill="#003A5A"/>
</svg>
