<svg width="168" height="41" viewBox="0 0 168 41" fill="none" xmlns="http://www.w3.org/2000/svg">
<path d="M49.1123 28.9909H61.0643V25.3909H53.3603V11.8309H49.1123V28.9909Z" fill="#2F234F"/>
<path d="M68.1455 26.5909C66.4415 26.5909 65.5535 25.1029 65.5535 22.8709C65.5535 20.6389 66.4415 19.1269 68.1455 19.1269C69.8495 19.1269 70.7615 20.6389 70.7615 22.8709C70.7615 25.1029 69.8495 26.5909 68.1455 26.5909ZM68.1695 29.3749C72.1295 29.3749 74.7215 26.5669 74.7215 22.8709C74.7215 19.1749 72.1295 16.3669 68.1695 16.3669C64.2335 16.3669 61.5935 19.1749 61.5935 22.8709C61.5935 26.5669 64.2335 29.3749 68.1695 29.3749Z" fill="#2F234F"/>
<path d="M81.5759 33.2389C83.3999 33.2389 85.0079 32.8309 86.0879 31.8709C87.0719 30.9829 87.7199 29.6389 87.7199 27.7909V16.7029H83.9759V18.0229H83.9279C83.2079 16.9909 82.1039 16.3429 80.4719 16.3429C77.4239 16.3429 75.3119 18.8869 75.3119 22.4869C75.3119 26.2549 77.8799 28.3189 80.6399 28.3189C82.1279 28.3189 83.0639 27.7189 83.7839 26.9029H83.8799V28.1269C83.8799 29.6149 83.1839 30.4789 81.5279 30.4789C80.2319 30.4789 79.5839 29.9269 79.3679 29.2789H75.5759C75.9599 31.8469 78.1919 33.2389 81.5759 33.2389ZM81.5519 25.4149C80.0879 25.4149 79.1279 24.2149 79.1279 22.3669C79.1279 20.4949 80.0879 19.2949 81.5519 19.2949C83.1839 19.2949 84.0479 20.6869 84.0479 22.3429C84.0479 24.0709 83.2559 25.4149 81.5519 25.4149Z" fill="#2F234F"/>
<path d="M95.4183 26.5909C93.7143 26.5909 92.8263 25.1029 92.8263 22.8709C92.8263 20.6389 93.7143 19.1269 95.4183 19.1269C97.1223 19.1269 98.0343 20.6389 98.0343 22.8709C98.0343 25.1029 97.1223 26.5909 95.4183 26.5909ZM95.4423 29.3749C99.4023 29.3749 101.995 26.5669 101.995 22.8709C101.995 19.1749 99.4023 16.3669 95.4423 16.3669C91.5063 16.3669 88.8663 19.1749 88.8663 22.8709C88.8663 26.5669 91.5063 29.3749 95.4423 29.3749Z" fill="#2F234F"/>
<path d="M103.137 28.9909H107.049V16.7029H103.137V28.9909ZM103.137 14.9989H107.049V11.8309H103.137V14.9989Z" fill="#2F234F"/>
<path d="M108.746 33.0469H112.658V27.7189H112.706C113.474 28.7509 114.602 29.3749 116.186 29.3749C119.402 29.3749 121.538 26.8309 121.538 22.8469C121.538 19.1509 119.546 16.3429 116.282 16.3429C114.602 16.3429 113.402 17.0869 112.562 18.1909H112.49V16.7029H108.746V33.0469ZM115.178 26.3509C113.498 26.3509 112.538 24.9829 112.538 22.9909C112.538 20.9989 113.402 19.4869 115.106 19.4869C116.786 19.4869 117.578 20.8789 117.578 22.9909C117.578 25.0789 116.666 26.3509 115.178 26.3509Z" fill="#2F234F"/>
<path d="M127.908 29.3749C131.124 29.3749 133.5 27.9829 133.5 25.2949C133.5 22.1509 130.956 21.5989 128.796 21.2389C127.236 20.9509 125.844 20.8309 125.844 19.9669C125.844 19.1989 126.588 18.8389 127.548 18.8389C128.628 18.8389 129.372 19.1749 129.516 20.2789H133.116C132.924 17.8549 131.052 16.3429 127.572 16.3429C124.668 16.3429 122.268 17.6869 122.268 20.2789C122.268 23.1589 124.548 23.7349 126.684 24.0949C128.316 24.3829 129.804 24.5029 129.804 25.6069C129.804 26.3989 129.06 26.8309 127.884 26.8309C126.588 26.8309 125.772 26.2309 125.628 25.0069H121.932C122.052 27.7189 124.308 29.3749 127.908 29.3749Z" fill="#2F234F"/>
<path d="M138.813 29.3509C140.517 29.3509 141.597 28.6789 142.485 27.4789H142.557V28.9909H146.301V16.7029H142.389V23.5669C142.389 25.0309 141.573 26.0389 140.229 26.0389C138.981 26.0389 138.381 25.2949 138.381 23.9509V16.7029H134.493V24.7669C134.493 27.5029 135.981 29.3509 138.813 29.3509Z" fill="#2F234F"/>
<path d="M148.003 28.9909H151.915V22.1029C151.915 20.6389 152.635 19.6069 153.859 19.6069C155.035 19.6069 155.587 20.3749 155.587 21.6949V28.9909H159.499V22.1029C159.499 20.6389 160.195 19.6069 161.443 19.6069C162.619 19.6069 163.171 20.3749 163.171 21.6949V28.9909H167.083V20.9989C167.083 18.2389 165.691 16.3429 162.907 16.3429C161.323 16.3429 160.003 17.0149 159.043 18.5029H158.995C158.371 17.1829 157.147 16.3429 155.539 16.3429C153.763 16.3429 152.587 17.1829 151.819 18.4549H151.747V16.7029H148.003V28.9909Z" fill="#2F234F"/>
<path fill-rule="evenodd" clip-rule="evenodd" d="M9.13574 4.08877C7.70508 5.08913 6.41138 6.27188 5.28833 7.6033C9.87763 7.17723 15.7082 7.87295 22.4774 11.2576C29.706 14.8718 35.5268 14.994 39.5778 14.2126C39.2102 13.0997 38.7474 12.0301 38.1993 11.0133C33.562 11.5024 27.617 10.855 20.6886 7.39088C16.289 5.19108 12.4108 4.28491 9.13574 4.08877ZM35.4904 7.15755C31.8283 3.0659 26.5064 0.490906 20.583 0.490906C18.8435 0.490906 17.1557 0.713013 15.5467 1.13039C17.7259 1.72499 20.0409 2.59489 22.4774 3.81317C27.55 6.34943 31.9294 7.16606 35.4904 7.15755ZM40.4439 18.119C35.5499 19.0854 28.7918 18.8869 20.6886 14.8353C13.113 11.0475 7.08344 11.0952 3.01691 11.9989C2.80701 12.0455 2.60205 12.0945 2.40204 12.1455C1.86963 13.3034 1.44464 14.521 1.13971 15.7854C1.46539 15.6984 1.80194 15.6157 2.14917 15.5385C7.08258 14.4422 14.0531 14.4898 22.4774 18.702C30.0531 22.4898 36.0826 22.4421 40.1492 21.5384C40.2885 21.5075 40.4258 21.4755 40.5608 21.4425C40.5756 21.1272 40.583 20.8099 40.583 20.4909C40.583 19.6884 40.5358 18.8969 40.4439 18.119ZM39.9078 25.6632C35.0613 26.5105 28.5 26.1853 20.6886 22.2797C13.113 18.4919 7.08344 18.5396 3.01691 19.4433C2.11426 19.6438 1.30225 19.8881 0.585938 20.146C0.583985 20.2607 0.583008 20.3757 0.583008 20.4909C0.583008 31.5366 9.5373 40.4909 20.583 40.4909C29.8401 40.4909 37.6283 34.2018 39.9078 25.6632Z" fill="#7F57F1"/>
</svg>
