<svg width="33" height="26" viewBox="0 0 33 26" fill="none" xmlns="http://www.w3.org/2000/svg">
<path d="M33 3.08407C31.7864 3.60524 30.4828 3.95738 29.1123 4.11655C30.5264 3.29648 31.5843 2.00577 32.0887 0.485276C30.7601 1.25011 29.3061 1.78847 27.7897 2.07695C26.77 1.02175 25.4194 0.322342 23.9475 0.0873202C22.4756 -0.147702 20.9649 0.0948102 19.6498 0.777205C18.3347 1.4596 17.2889 2.5437 16.6746 3.86118C16.0604 5.17867 15.9122 6.65584 16.2529 8.06335C13.5609 7.93234 10.9273 7.2542 8.52312 6.07291C6.11897 4.89163 3.99796 3.23361 2.29776 1.20646C1.71642 2.17837 1.38215 3.30522 1.38215 4.50532C1.3815 5.58568 1.65601 6.64949 2.18132 7.60237C2.70663 8.55525 3.4665 9.36773 4.39351 9.96772C3.31842 9.93457 2.26706 9.65303 1.32692 9.14653V9.23104C1.32681 10.7463 1.86762 12.2149 2.85757 13.3877C3.84753 14.5605 5.22566 15.3652 6.75813 15.6654C5.76081 15.927 4.71519 15.9655 3.70026 15.778C4.13263 17.0818 4.97485 18.2219 6.10901 19.0388C7.24317 19.8556 8.61249 20.3082 10.0253 20.3333C7.62699 22.158 4.66512 23.1478 1.61614 23.1434C1.07604 23.1436 0.536401 23.113 0 23.0519C3.0949 24.9804 6.69758 26.004 10.377 26C22.8323 26 29.6413 16.002 29.6413 7.33089C29.6413 7.04918 29.634 6.76465 29.6209 6.48294C30.9454 5.55466 32.0886 4.40516 32.9971 3.0883L33 3.08407Z" fill="#487BFF"/>
</svg>
