<svg width="123" height="61" viewBox="0 0 123 61" fill="none" xmlns="http://www.w3.org/2000/svg">
<path d="M0.118958 54H11.4717V50.7673H3.58078V35.6727H0.118958V54Z" fill="#333268"/>
<path d="M18.2939 54.3818C19.6685 54.3818 20.8776 54.0763 21.9212 53.4654C22.9733 52.846 23.7921 51.9933 24.3776 50.9073C24.9715 49.8127 25.2685 48.5527 25.2685 47.1273C25.2685 45.7103 24.9757 44.4588 24.3903 43.3727C23.8048 42.2782 22.986 41.4212 21.9339 40.8018C20.8903 40.1824 19.677 39.8727 18.2939 39.8727C16.9363 39.8727 15.7357 40.1782 14.6921 40.7891C13.6485 41.4 12.8297 42.2527 12.2357 43.3473C11.6418 44.4333 11.3448 45.6933 11.3448 47.1273C11.3448 48.5442 11.6333 49.8 12.2103 50.8945C12.7957 51.9806 13.6103 52.8333 14.6539 53.4527C15.6976 54.0721 16.9109 54.3818 18.2939 54.3818ZM18.2939 51.1491C17.2163 51.1491 16.3976 50.7885 15.8376 50.0673C15.286 49.3376 15.0103 48.3576 15.0103 47.1273C15.0103 45.9309 15.2733 44.9636 15.7994 44.2254C16.3339 43.4788 17.1654 43.1054 18.2939 43.1054C19.3885 43.1054 20.2115 43.4703 20.763 44.2C21.323 44.9297 21.603 45.9054 21.603 47.1273C21.603 48.3067 21.3273 49.2739 20.7757 50.0291C20.2327 50.7757 19.4054 51.1491 18.2939 51.1491Z" fill="#333268"/>
<path d="M32.1145 54.3818C32.7594 54.3818 33.3533 54.3054 33.8964 54.1527C34.4479 54 34.9485 53.7836 35.3982 53.5036V54.8909C35.4152 55.4 35.2836 55.8242 35.0036 56.1636C34.7321 56.5115 34.3673 56.7703 33.9091 56.94C33.4509 57.1182 32.963 57.2073 32.4455 57.2073C31.9618 57.2073 31.5121 57.1012 31.0964 56.8891C30.6891 56.677 30.3751 56.3673 30.1545 55.96L26.9473 57.5127C27.4733 58.4036 28.2242 59.1206 29.2 59.6636C30.1758 60.2151 31.2491 60.4909 32.42 60.4909C33.4297 60.4909 34.3673 60.3551 35.2327 60.0836C36.0982 59.8206 36.8279 59.4176 37.4218 58.8745C38.0242 58.3315 38.4358 57.64 38.6564 56.8C38.7327 56.503 38.7836 56.2018 38.8091 55.8963C38.843 55.5994 38.86 55.2812 38.86 54.9418V40.2545H35.8309V41.0182C35.3642 40.6533 34.8339 40.3733 34.24 40.1782C33.6545 39.9745 33.0055 39.8727 32.2927 39.8727C30.9776 39.8727 29.8321 40.1867 28.8564 40.8145C27.8806 41.4424 27.1212 42.3036 26.5782 43.3982C26.0436 44.4842 25.7764 45.7273 25.7764 47.1273C25.7764 48.5018 26.0394 49.7363 26.5655 50.8309C27.1 51.9254 27.8424 52.7909 28.7927 53.4273C29.743 54.0636 30.8503 54.3818 32.1145 54.3818ZM32.6745 51.3018C31.9279 51.3018 31.317 51.1151 30.8418 50.7418C30.3667 50.3685 30.0145 49.8679 29.7855 49.24C29.5564 48.6036 29.4418 47.8994 29.4418 47.1273C29.4418 46.3636 29.5606 45.6679 29.7982 45.04C30.0358 44.4036 30.4006 43.8988 30.8927 43.5254C31.3933 43.1436 32.0297 42.9527 32.8018 42.9527C33.8879 42.9527 34.6642 43.3388 35.1309 44.1109C35.5976 44.8745 35.8309 45.88 35.8309 47.1273C35.8309 48.3745 35.5933 49.3842 35.1182 50.1563C34.6515 50.92 33.837 51.3018 32.6745 51.3018Z" fill="#333268"/>
<path d="M47.0824 54.3818C48.457 54.3818 49.6661 54.0763 50.7097 53.4654C51.7618 52.846 52.5806 51.9933 53.1661 50.9073C53.76 49.8127 54.057 48.5527 54.057 47.1273C54.057 45.7103 53.7642 44.4588 53.1788 43.3727C52.5933 42.2782 51.7745 41.4212 50.7224 40.8018C49.6788 40.1824 48.4654 39.8727 47.0824 39.8727C45.7248 39.8727 44.5242 40.1782 43.4806 40.7891C42.437 41.4 41.6182 42.2527 41.0242 43.3473C40.4303 44.4333 40.1333 45.6933 40.1333 47.1273C40.1333 48.5442 40.4218 49.8 40.9988 50.8945C41.5842 51.9806 42.3988 52.8333 43.4424 53.4527C44.4861 54.0721 45.6994 54.3818 47.0824 54.3818ZM47.0824 51.1491C46.0048 51.1491 45.186 50.7885 44.626 50.0673C44.0745 49.3376 43.7988 48.3576 43.7988 47.1273C43.7988 45.9309 44.0618 44.9636 44.5879 44.2254C45.1224 43.4788 45.9539 43.1054 47.0824 43.1054C48.177 43.1054 49 43.4703 49.5515 44.2C50.1115 44.9297 50.3915 45.9054 50.3915 47.1273C50.3915 48.3067 50.1157 49.2739 49.5642 50.0291C49.0212 50.7757 48.1939 51.1491 47.0824 51.1491Z" fill="#333268"/>
<path d="M55.583 38.3454H59.0448V35.2909H55.583V38.3454ZM55.583 54H59.0448V40.2545H55.583V54Z" fill="#333268"/>
<path d="M61.3077 60.1091H64.795V53.5036C65.2447 53.7836 65.7411 54 66.2841 54.1527C66.8356 54.3054 67.4338 54.3818 68.0786 54.3818C69.3429 54.3818 70.4502 54.0636 71.4005 53.4273C72.3508 52.7909 73.0889 51.9254 73.615 50.8309C74.1495 49.7363 74.4168 48.5018 74.4168 47.1273C74.4168 45.7273 74.1453 44.4842 73.6023 43.3982C73.0677 42.3036 72.3126 41.4424 71.3368 40.8145C70.3611 40.1867 69.2156 39.8727 67.9005 39.8727C67.1877 39.8727 66.5344 39.9745 65.9404 40.1782C65.355 40.3733 64.8289 40.6533 64.3623 41.0182V40.2545H61.3077V60.1091ZM67.5186 51.3018C66.3647 51.3018 65.5502 50.92 65.075 50.1563C64.5998 49.3842 64.3623 48.3745 64.3623 47.1273C64.3623 45.88 64.5956 44.8745 65.0623 44.1109C65.5374 43.3388 66.3138 42.9527 67.3914 42.9527C68.1635 42.9527 68.7956 43.1436 69.2877 43.5254C69.7883 43.8988 70.1574 44.4036 70.395 45.04C70.6326 45.6679 70.7514 46.3636 70.7514 47.1273C70.7514 47.8994 70.6368 48.6036 70.4077 49.24C70.1786 49.8679 69.8265 50.3685 69.3514 50.7418C68.8762 51.1151 68.2653 51.3018 67.5186 51.3018Z" fill="#333268"/>
<path d="M80.6882 54.3818C82.487 54.3818 83.8954 53.9788 84.9136 53.1727C85.9318 52.3666 86.4409 51.2594 86.4409 49.8509C86.4409 48.7818 86.11 47.9376 85.4482 47.3182C84.7948 46.6988 83.6833 46.1854 82.1136 45.7782C81.0445 45.5066 80.247 45.286 79.7209 45.1163C79.2033 44.9467 78.8597 44.7812 78.69 44.62C78.5288 44.4588 78.4482 44.2594 78.4482 44.0218C78.4482 43.623 78.6391 43.3176 79.0209 43.1054C79.4112 42.8933 79.9245 42.8085 80.5609 42.8509C81.91 42.9527 82.6482 43.5297 82.7754 44.5818L86.3136 43.9454C86.1355 42.6982 85.5245 41.7097 84.4809 40.98C83.4373 40.2418 82.1051 39.8727 80.4845 39.8727C78.8215 39.8727 77.4936 40.263 76.5009 41.0436C75.5082 41.8242 75.0118 42.8763 75.0118 44.2C75.0118 45.2521 75.3554 46.0836 76.0427 46.6945C76.73 47.297 77.9136 47.8145 79.5936 48.2473C80.5864 48.5103 81.3161 48.7224 81.7827 48.8836C82.2579 49.0448 82.5633 49.2103 82.6991 49.38C82.8348 49.5412 82.9027 49.7576 82.9027 50.0291C82.9027 50.4618 82.733 50.8012 82.3936 51.0473C82.0542 51.2848 81.5706 51.4036 80.9427 51.4036C80.1791 51.4036 79.547 51.2212 79.0464 50.8563C78.5542 50.4915 78.2361 49.9867 78.0918 49.3418L74.5536 49.8763C74.7827 51.3103 75.4276 52.4218 76.4882 53.2109C77.5573 53.9915 78.9573 54.3818 80.6882 54.3818Z" fill="#333268"/>
<path d="M92.8268 54.4073C93.8195 54.4073 94.685 54.2418 95.4232 53.9109C96.1614 53.58 96.7808 53.1388 97.2814 52.5873V54H100.336V40.2545H96.8486V47.2291C96.8486 48.0776 96.7511 48.7648 96.5559 49.2909C96.3692 49.8085 96.1274 50.203 95.8304 50.4745C95.5335 50.7376 95.2153 50.9157 94.8759 51.0091C94.5365 51.1024 94.2183 51.1491 93.9214 51.1491C93.1832 51.1491 92.6104 50.9836 92.2032 50.6527C91.8044 50.3218 91.5159 49.9103 91.3377 49.4182C91.1595 48.926 91.0535 48.4382 91.0195 47.9545C90.9856 47.4624 90.9686 47.0594 90.9686 46.7454V40.2545H87.4559V47.9673C87.4559 48.1963 87.4729 48.5612 87.5068 49.0618C87.5407 49.5624 87.6383 50.1182 87.7995 50.7291C87.9608 51.3315 88.228 51.9127 88.6014 52.4727C88.9832 53.0327 89.5135 53.4951 90.1923 53.86C90.8711 54.2248 91.7492 54.4073 92.8268 54.4073Z" fill="#333268"/>
<path d="M102.341 54H105.828V45.6763C105.828 44.8873 106.044 44.2467 106.477 43.7545C106.918 43.2539 107.499 43.0036 108.221 43.0036C108.976 43.0036 109.566 43.2582 109.99 43.7673C110.422 44.2679 110.639 44.9721 110.639 45.88V54H114.101V45.6763C114.101 44.8873 114.317 44.2467 114.75 43.7545C115.191 43.2539 115.772 43.0036 116.493 43.0036C117.249 43.0036 117.838 43.2582 118.262 43.7673C118.695 44.2679 118.912 44.9721 118.912 45.88V54H122.373V44.9636C122.373 43.4618 121.97 42.2485 121.164 41.3236C120.367 40.3903 119.183 39.9236 117.613 39.9236C116.731 39.9236 115.921 40.1145 115.182 40.4963C114.444 40.8782 113.855 41.4 113.413 42.0618C113.057 41.417 112.548 40.8994 111.886 40.5091C111.224 40.1188 110.401 39.9236 109.417 39.9236C108.585 39.9236 107.822 40.0891 107.126 40.42C106.43 40.7424 105.853 41.1879 105.395 41.7563V40.2545H102.341V54Z" fill="#333268"/>
<path d="M0.0825806 14.5C0.0825813 6.49187 6.57445 -7.0009e-07 14.5826 0C18.9243 3.7957e-07 22.8204 1.90824 25.4778 4.93177C30.2994 10.345 34.2864 10.0602 38.5205 6.06395C40.598 4.10244 43.3999 2.9 46.4826 2.9C52.8891 2.90001 58.0826 8.0935 58.0826 14.5C58.0826 20.9065 52.8891 26.1 46.4826 26.1C43.3999 26.1 40.598 24.8975 38.5205 22.936C34.2874 18.9407 30.3013 18.655 25.4813 24.0642C22.8238 27.0901 18.9262 29 14.5826 29C6.57445 29 0.0825799 22.5081 0.0825806 14.5Z" fill="#F2F5FA"/>
<path d="M0.0825806 14.5C0.0825813 6.49187 6.57445 -7.0009e-07 14.5826 0C18.9243 3.7957e-07 22.8204 1.90824 25.4778 4.93177C30.2994 10.345 34.2864 10.0602 38.5205 6.06395C40.598 4.10244 43.3999 2.9 46.4826 2.9C52.8891 2.90001 58.0826 8.0935 58.0826 14.5C58.0826 20.9065 52.8891 26.1 46.4826 26.1C43.3999 26.1 40.598 24.8975 38.5205 22.936C34.2874 18.9407 30.3013 18.655 25.4813 24.0642C22.8238 27.0901 18.9262 29 14.5826 29C6.57445 29 0.0825799 22.5081 0.0825806 14.5Z" fill="url(#paint0_linear_2_263)"/>
<path d="M0.0825806 14.5C0.0825813 6.49187 6.57445 -7.0009e-07 14.5826 0C18.9243 3.7957e-07 22.8204 1.90824 25.4778 4.93177C30.2994 10.345 34.2864 10.0602 38.5205 6.06395C40.598 4.10244 43.3999 2.9 46.4826 2.9C52.8891 2.90001 58.0826 8.0935 58.0826 14.5C58.0826 20.9065 52.8891 26.1 46.4826 26.1C43.3999 26.1 40.598 24.8975 38.5205 22.936C34.2874 18.9407 30.3013 18.655 25.4813 24.0642C22.8238 27.0901 18.9262 29 14.5826 29C6.57445 29 0.0825799 22.5081 0.0825806 14.5Z" fill="url(#paint1_linear_2_263)"/>
<path d="M0.0825806 14.5C0.0825813 6.49187 6.57445 -7.0009e-07 14.5826 0C18.9243 3.7957e-07 22.8204 1.90824 25.4778 4.93177C30.2994 10.345 34.2864 10.0602 38.5205 6.06395C40.598 4.10244 43.3999 2.9 46.4826 2.9C52.8891 2.90001 58.0826 8.0935 58.0826 14.5C58.0826 20.9065 52.8891 26.1 46.4826 26.1C43.3999 26.1 40.598 24.8975 38.5205 22.936C34.2874 18.9407 30.3013 18.655 25.4813 24.0642C22.8238 27.0901 18.9262 29 14.5826 29C6.57445 29 0.0825799 22.5081 0.0825806 14.5Z" fill="url(#paint2_radial_2_263)"/>
<path d="M0.0825806 14.5C0.0825813 6.49187 6.57445 -7.0009e-07 14.5826 0C18.9243 3.7957e-07 22.8204 1.90824 25.4778 4.93177C30.2994 10.345 34.2864 10.0602 38.5205 6.06395C40.598 4.10244 43.3999 2.9 46.4826 2.9C52.8891 2.90001 58.0826 8.0935 58.0826 14.5C58.0826 20.9065 52.8891 26.1 46.4826 26.1C43.3999 26.1 40.598 24.8975 38.5205 22.936C34.2874 18.9407 30.3013 18.655 25.4813 24.0642C22.8238 27.0901 18.9262 29 14.5826 29C6.57445 29 0.0825799 22.5081 0.0825806 14.5Z" fill="url(#paint3_radial_2_263)"/>
<path d="M0.0825806 14.5C0.0825813 6.49187 6.57445 -7.0009e-07 14.5826 0C18.9243 3.7957e-07 22.8204 1.90824 25.4778 4.93177C30.2994 10.345 34.2864 10.0602 38.5205 6.06395C40.598 4.10244 43.3999 2.9 46.4826 2.9C52.8891 2.90001 58.0826 8.0935 58.0826 14.5C58.0826 20.9065 52.8891 26.1 46.4826 26.1C43.3999 26.1 40.598 24.8975 38.5205 22.936C34.2874 18.9407 30.3013 18.655 25.4813 24.0642C22.8238 27.0901 18.9262 29 14.5826 29C6.57445 29 0.0825799 22.5081 0.0825806 14.5Z" fill="url(#paint4_radial_2_263)"/>
<defs>
<linearGradient id="paint0_linear_2_263" x1="92.2135" y1="45.2783" x2="22.3789" y2="-9.57888" gradientUnits="userSpaceOnUse">
<stop stop-color="#FF557E"/>
<stop offset="0.841052" stop-color="#FF5555" stop-opacity="0"/>
</linearGradient>
<linearGradient id="paint1_linear_2_263" x1="30.6599" y1="56.4344" x2="49.1003" y2="-8.13633" gradientUnits="userSpaceOnUse">
<stop stop-color="#58CCDC"/>
<stop offset="1" stop-color="#58CCDC" stop-opacity="0"/>
</linearGradient>
<radialGradient id="paint2_radial_2_263" cx="0" cy="0" r="1" gradientUnits="userSpaceOnUse" gradientTransform="translate(95.9915 73.0918) rotate(-123.21) scale(77.5323 63.7643)">
<stop stop-color="#8263DB"/>
<stop offset="0.568731" stop-color="#8172DA" stop-opacity="0.26"/>
<stop offset="1" stop-color="#8172DA" stop-opacity="0"/>
</radialGradient>
<radialGradient id="paint3_radial_2_263" cx="0" cy="0" r="1" gradientUnits="userSpaceOnUse" gradientTransform="translate(38.6716 -8.75039) rotate(77.5454) scale(52.0828 82.6659)">
<stop stop-color="#41D1B7"/>
<stop offset="0.492704" stop-color="#41D1B7" stop-opacity="0.35"/>
<stop offset="1" stop-color="#41D1B7" stop-opacity="0"/>
</radialGradient>
<radialGradient id="paint4_radial_2_263" cx="0" cy="0" r="1" gradientUnits="userSpaceOnUse" gradientTransform="translate(59.7272 -10.7446) rotate(125.113) scale(27.1121 57.4261)">
<stop stop-color="#FFEC45"/>
<stop offset="0.549191" stop-color="#FFEC45" stop-opacity="0.3"/>
<stop offset="0.961144" stop-color="#FFEC45" stop-opacity="0"/>
</radialGradient>
</defs>
</svg>
