<svg width="155" height="26" viewBox="0 0 155 26" fill="none" xmlns="http://www.w3.org/2000/svg">
<path d="M24.0486 20.0576H32.0437L12.2382 0.252014H4.24305L24.0486 20.0576Z" fill="#7476ED"/>
<path d="M16.3457 0.252015L35.4379 19.3442V0.252014H30.2712V6.27978L24.2434 0.252014L16.3457 0.252015Z" fill="#E56F8C"/>
<path d="M0.896027 0.915038V20.0575H6.0627V14.0297L12.0904 20.0575H20.0385L0.896027 0.915038Z" fill="#64C2DB"/>
<path d="M47.9058 17.0795H52.5351V19.8075H44.3718V5.29954H47.9058V17.0795Z" fill="#3A3B7B"/>
<path d="M58.8501 19.9729C57.7203 19.9729 56.7007 19.7318 55.7914 19.2495C54.8958 18.7673 54.1863 18.0784 53.6627 17.1829C53.153 16.2873 52.8981 15.2402 52.8981 14.0415C52.8981 12.8567 53.1598 11.8164 53.6834 10.9209C54.207 10.0115 54.9234 9.31576 55.8327 8.83354C56.7421 8.35132 57.7616 8.11021 58.8914 8.11021C60.0212 8.11021 61.0407 8.35132 61.9501 8.83354C62.8594 9.31576 63.5758 10.0115 64.0994 10.9209C64.623 11.8164 64.8847 12.8567 64.8847 14.0415C64.8847 15.2264 64.6161 16.2735 64.0787 17.1829C63.5552 18.0784 62.8318 18.7673 61.9087 19.2495C60.9994 19.7318 59.9798 19.9729 58.8501 19.9729ZM58.8501 16.9142C59.5252 16.9142 60.097 16.6662 60.5654 16.1702C61.0476 15.6742 61.2887 14.9647 61.2887 14.0415C61.2887 13.1184 61.0545 12.4089 60.5861 11.9129C60.1314 11.4169 59.5665 11.1689 58.8914 11.1689C58.2025 11.1689 57.6307 11.4169 57.1761 11.9129C56.7214 12.3951 56.4941 13.1047 56.4941 14.0415C56.4941 14.9647 56.7145 15.6742 57.1554 16.1702C57.6101 16.6662 58.175 16.9142 58.8501 16.9142Z" fill="#3A3B7B"/>
<path d="M70.5209 8.11021C71.3338 8.11021 72.0434 8.27554 72.6496 8.60621C73.2696 8.93688 73.7449 9.3709 74.0756 9.9082V8.27554H77.6096V19.7869C77.6096 20.8478 77.396 21.8053 76.9689 22.6595C76.5556 23.5275 75.9149 24.2164 75.0469 24.7262C74.1927 25.236 73.1249 25.4909 71.8436 25.4909C70.1351 25.4909 68.7505 25.0844 67.6896 24.2715C66.6287 23.4724 66.0225 22.384 65.8709 21.0062H69.3636C69.4738 21.4471 69.7356 21.7915 70.1489 22.0395C70.5623 22.3013 71.072 22.4322 71.6783 22.4322C72.4085 22.4322 72.9871 22.2187 73.4143 21.7915C73.8551 21.3782 74.0756 20.71 74.0756 19.7869V18.1542C73.7311 18.6915 73.2558 19.1324 72.6496 19.4769C72.0434 19.8075 71.3338 19.9729 70.5209 19.9729C69.5703 19.9729 68.7091 19.7318 67.9376 19.2495C67.166 18.7535 66.5529 18.0578 66.0983 17.1622C65.6574 16.2529 65.4369 15.2058 65.4369 14.0209C65.4369 12.836 65.6574 11.7958 66.0983 10.9002C66.5529 10.0047 67.166 9.31576 67.9376 8.83354C68.7091 8.35132 69.5703 8.11021 70.5209 8.11021ZM74.0756 14.0415C74.0756 13.1598 73.8276 12.464 73.3316 11.9542C72.8494 11.4444 72.2569 11.1895 71.5543 11.1895C70.8516 11.1895 70.2523 11.4444 69.7563 11.9542C69.274 12.4502 69.0329 13.1391 69.0329 14.0209C69.0329 14.9027 69.274 15.6053 69.7563 16.1289C70.2523 16.6387 70.8516 16.8935 71.5543 16.8935C72.2569 16.8935 72.8494 16.6387 73.3316 16.1289C73.8276 15.6191 74.0756 14.9233 74.0756 14.0415Z" fill="#3A3B7B"/>
<path d="M84.7956 19.9729C83.6658 19.9729 82.6463 19.7318 81.7369 19.2495C80.8414 18.7673 80.1318 18.0784 79.6083 17.1829C79.0985 16.2873 78.8436 15.2402 78.8436 14.0415C78.8436 12.8567 79.1054 11.8164 79.6289 10.9209C80.1525 10.0115 80.8689 9.31576 81.7783 8.83354C82.6876 8.35132 83.7072 8.11021 84.8369 8.11021C85.9667 8.11021 86.9863 8.35132 87.8956 8.83354C88.8049 9.31576 89.5214 10.0115 90.0449 10.9209C90.5685 11.8164 90.8303 12.8567 90.8303 14.0415C90.8303 15.2264 90.5616 16.2735 90.0243 17.1829C89.5007 18.0784 88.7774 18.7673 87.8543 19.2495C86.9449 19.7318 85.9254 19.9729 84.7956 19.9729ZM84.7956 16.9142C85.4707 16.9142 86.0425 16.6662 86.5109 16.1702C86.9932 15.6742 87.2343 14.9647 87.2343 14.0415C87.2343 13.1184 87.0001 12.4089 86.5316 11.9129C86.0769 11.4169 85.5121 11.1689 84.8369 11.1689C84.1481 11.1689 83.5763 11.4169 83.1216 11.9129C82.6669 12.3951 82.4396 13.1047 82.4396 14.0415C82.4396 14.9647 82.6601 15.6742 83.1009 16.1702C83.5556 16.6662 84.1205 16.9142 84.7956 16.9142Z" fill="#3A3B7B"/>
<path d="M93.8625 7.07688C93.2425 7.07688 92.7327 6.89776 92.3331 6.53954C91.9474 6.16754 91.7545 5.71288 91.7545 5.17554C91.7545 4.62443 91.9474 4.16976 92.3331 3.81154C92.7327 3.43954 93.2425 3.25354 93.8625 3.25354C94.4687 3.25354 94.9647 3.43954 95.3505 3.81154C95.75 4.16976 95.9498 4.62443 95.9498 5.17554C95.9498 5.71288 95.75 6.16754 95.3505 6.53954C94.9647 6.89776 94.4687 7.07688 93.8625 7.07688ZM95.6191 8.27554V19.8075H92.0851V8.27554H95.6191Z" fill="#3A3B7B"/>
<path d="M101.094 9.9082C101.439 9.3709 101.914 8.93688 102.52 8.60621C103.126 8.27554 103.836 8.11021 104.649 8.11021C105.6 8.11021 106.461 8.35132 107.232 8.83354C108.004 9.31576 108.61 10.0047 109.051 10.9002C109.506 11.7958 109.733 12.836 109.733 14.0209C109.733 15.2058 109.506 16.2529 109.051 17.1622C108.61 18.0578 108.004 18.7535 107.232 19.2495C106.461 19.7318 105.6 19.9729 104.649 19.9729C103.85 19.9729 103.14 19.8075 102.52 19.4769C101.914 19.1462 101.439 18.7191 101.094 18.1955V25.3049H97.5602V8.27554H101.094V9.9082ZM106.137 14.0209C106.137 13.1391 105.889 12.4502 105.393 11.9542C104.911 11.4444 104.311 11.1895 103.595 11.1895C102.892 11.1895 102.293 11.4444 101.797 11.9542C101.315 12.464 101.074 13.1598 101.074 14.0415C101.074 14.9233 101.315 15.6191 101.797 16.1289C102.293 16.6387 102.892 16.8935 103.595 16.8935C104.298 16.8935 104.897 16.6387 105.393 16.1289C105.889 15.6053 106.137 14.9027 106.137 14.0209Z" fill="#3A3B7B"/>
<path d="M115.658 19.9729C114.652 19.9729 113.757 19.8007 112.972 19.4562C112.186 19.1118 111.566 18.6433 111.112 18.0509C110.657 17.4447 110.402 16.7695 110.347 16.0255H113.84C113.881 16.4251 114.067 16.7489 114.398 16.9969C114.728 17.2449 115.135 17.3689 115.617 17.3689C116.058 17.3689 116.395 17.2862 116.63 17.1209C116.878 16.9418 117.002 16.7144 117.002 16.4389C117.002 16.1082 116.829 15.8671 116.485 15.7155C116.14 15.5502 115.582 15.3711 114.811 15.1782C113.984 14.9853 113.295 14.7855 112.744 14.5789C112.193 14.3584 111.718 14.0209 111.318 13.5662C110.919 13.0978 110.719 12.4709 110.719 11.6855C110.719 11.0242 110.898 10.4249 111.256 9.8875C111.628 9.33643 112.166 8.90243 112.868 8.58554C113.585 8.26865 114.432 8.11021 115.41 8.11021C116.857 8.11021 117.994 8.46843 118.82 9.18488C119.661 9.9013 120.143 10.852 120.267 12.0369H117.002C116.946 11.6373 116.767 11.3204 116.464 11.0862C116.175 10.852 115.789 10.7349 115.307 10.7349C114.894 10.7349 114.577 10.8175 114.356 10.9829C114.136 11.1344 114.026 11.348 114.026 11.6235C114.026 11.9542 114.198 12.2022 114.542 12.3675C114.9 12.5329 115.452 12.6982 116.196 12.8635C117.05 13.084 117.746 13.3044 118.283 13.5249C118.82 13.7315 119.289 14.076 119.688 14.5582C120.102 15.0267 120.315 15.6604 120.329 16.4595C120.329 17.1347 120.136 17.7409 119.75 18.2782C119.378 18.8018 118.834 19.2151 118.118 19.5182C117.415 19.8213 116.595 19.9729 115.658 19.9729Z" fill="#3A3B7B"/>
<path d="M133.258 8.27554V19.8075H129.724V18.2369C129.366 18.7467 128.877 19.16 128.257 19.4769C127.651 19.78 126.976 19.9315 126.232 19.9315C125.35 19.9315 124.571 19.7387 123.896 19.3529C123.221 18.9533 122.698 18.3815 122.326 17.6375C121.954 16.8935 121.768 16.0187 121.768 15.0129V8.27554H125.281V14.5375C125.281 15.3091 125.481 15.9084 125.88 16.3355C126.28 16.7627 126.817 16.9762 127.492 16.9762C128.181 16.9762 128.725 16.7627 129.125 16.3355C129.525 15.9084 129.724 15.3091 129.724 14.5375V8.27554H133.258Z" fill="#3A3B7B"/>
<path d="M149.891 8.15154C151.324 8.15154 152.461 8.58554 153.301 9.4535C154.156 10.3215 154.583 11.5271 154.583 13.0702V19.8075H151.069V13.5455C151.069 12.8015 150.87 12.2298 150.47 11.8302C150.084 11.4169 149.547 11.2102 148.858 11.2102C148.169 11.2102 147.625 11.4169 147.225 11.8302C146.84 12.2298 146.647 12.8015 146.647 13.5455V19.8075H143.133V13.5455C143.133 12.8015 142.934 12.2298 142.534 11.8302C142.148 11.4169 141.611 11.2102 140.922 11.2102C140.233 11.2102 139.689 11.4169 139.289 11.8302C138.904 12.2298 138.711 12.8015 138.711 13.5455V19.8075H135.177V8.27554H138.711V9.7222C139.069 9.23999 139.537 8.8611 140.116 8.58554C140.695 8.29621 141.349 8.15154 142.079 8.15154C142.947 8.15154 143.719 8.33754 144.394 8.70954C145.083 9.08154 145.62 9.612 146.006 10.3009C146.406 9.6671 146.95 9.15043 147.639 8.75088C148.328 8.35132 149.079 8.15154 149.891 8.15154Z" fill="#3A3B7B"/>
</svg>
