<svg width="16" height="17" viewBox="0 0 16 17" fill="none" xmlns="http://www.w3.org/2000/svg">
<path d="M4.10529 11.0282C4.17695 10.709 4.04666 10.253 3.81867 10.025L2.23575 8.4421C1.74068 7.94703 1.54526 7.41939 1.68857 6.96341C1.83839 6.50742 2.30089 6.19474 2.99138 6.07749L5.02378 5.73876C5.31691 5.68665 5.67519 5.42608 5.81198 5.15901L6.9324 2.91165C7.25811 2.26675 7.70107 1.90848 8.18311 1.90848C8.66515 1.90848 9.10811 2.26675 9.43381 2.91165L10.5542 5.15901C10.6389 5.32837 10.8148 5.49122 11.0037 5.60196L3.98804 12.6176C3.89684 12.7088 3.7405 12.6241 3.76656 12.4939L4.10529 11.0282Z" fill="#BCDB00"/>
<path d="M12.5475 10.025C12.313 10.2595 12.1828 10.709 12.2609 11.0282L12.7104 12.9889C12.8993 13.8032 12.7821 14.4155 12.3782 14.7086C12.2153 14.8259 12.0199 14.8845 11.7919 14.8845C11.4597 14.8845 11.0689 14.7608 10.6389 14.5067L8.73029 13.3733C8.43065 13.1974 7.93558 13.1974 7.63593 13.3733L5.7273 14.5067C5.00424 14.9301 4.3854 15.0018 3.98804 14.7086C3.83822 14.5979 3.72748 14.4481 3.65582 14.2527L11.5769 6.33153C11.8766 6.03188 12.3 5.89509 12.7104 5.96674L13.3683 6.07748C14.0588 6.19473 14.5213 6.50741 14.6711 6.9634C14.8144 7.41938 14.619 7.94702 14.124 8.44209L12.5475 10.025Z" fill="#BCDB00"/>
</svg>
