<svg width="60" height="60" viewBox="0 0 60 60" fill="none" xmlns="http://www.w3.org/2000/svg">
<path d="M55 12.1252V41.8502C55 44.2752 53.025 46.5002 50.6 46.8002L49.825 46.9002C45.725 47.4502 39.95 49.1502 35.3 51.1002C33.675 51.7752 31.875 50.5502 31.875 48.7752V14.0002C31.875 13.0752 32.4 12.2252 33.225 11.7752C37.8 9.3002 44.725 7.1002 49.425 6.7002H49.575C52.575 6.7002 55 9.12519 55 12.1252Z" fill="#003A5A"/>
<path d="M26.775 11.7752C22.2 9.3002 15.275 7.1002 10.575 6.7002H10.4C7.40001 6.7002 4.97501 9.12519 4.97501 12.1252V41.8502C4.97501 44.2752 6.95001 46.5002 9.37501 46.8002L10.15 46.9002C14.25 47.4502 20.025 49.1502 24.675 51.1002C26.3 51.7752 28.1 50.5502 28.1 48.7752V14.0002C28.1 13.0502 27.6 12.2252 26.775 11.7752ZM12.5 19.3502H18.125C19.15 19.3502 20 20.2002 20 21.2252C20 22.2752 19.15 23.1002 18.125 23.1002H12.5C11.475 23.1002 10.625 22.2752 10.625 21.2252C10.625 20.2002 11.475 19.3502 12.5 19.3502ZM20 30.6002H12.5C11.475 30.6002 10.625 29.7752 10.625 28.7252C10.625 27.7002 11.475 26.8502 12.5 26.8502H20C21.025 26.8502 21.875 27.7002 21.875 28.7252C21.875 29.7752 21.025 30.6002 20 30.6002Z" fill="#003A5A"/>
</svg>
