<svg width="15" height="15" viewBox="0 0 15 15" fill="none" xmlns="http://www.w3.org/2000/svg">
<path d="M3.58747 10C3.65622 9.69375 3.53122 9.25625 3.31247 9.0375L1.79372 7.51875C1.31872 7.04375 1.13122 6.5375 1.26872 6.1C1.41247 5.6625 1.85622 5.3625 2.51872 5.25L4.46872 4.925C4.74997 4.875 5.09372 4.625 5.22497 4.36875L6.29997 2.2125C6.61247 1.59375 7.03747 1.25 7.49997 1.25C7.96247 1.25 8.38747 1.59375 8.69997 2.2125L9.77497 4.36875C9.85622 4.53125 10.025 4.6875 10.2062 4.79375L3.47497 11.525C3.38747 11.6125 3.23747 11.5312 3.26247 11.4062L3.58747 10Z" fill="#B7D500"/>
<path d="M11.6875 9.03744C11.4625 9.26244 11.3375 9.69369 11.4125 9.99994L11.8438 11.8812C12.025 12.6624 11.9125 13.2499 11.525 13.5312C11.3688 13.6437 11.1813 13.6999 10.9625 13.6999C10.6438 13.6999 10.2688 13.5812 9.85625 13.3374L8.025 12.2499C7.7375 12.0812 7.2625 12.0812 6.975 12.2499L5.14375 13.3374C4.45 13.7437 3.85625 13.8124 3.475 13.5312C3.33125 13.4249 3.225 13.2812 3.15625 13.0937L10.7562 5.49369C11.0437 5.20619 11.45 5.07494 11.8438 5.14369L12.475 5.24994C13.1375 5.36244 13.5813 5.66244 13.725 6.09994C13.8625 6.53744 13.675 7.04369 13.2 7.51869L11.6875 9.03744Z" fill="#B7D500"/>
</svg>
