<svg width="15" height="15" viewBox="0 0 15 15" fill="none" xmlns="http://www.w3.org/2000/svg">
<path d="M3.5875 10C3.65625 9.69375 3.53125 9.25625 3.3125 9.0375L1.79375 7.51875C1.31875 7.04375 1.13125 6.5375 1.26875 6.1C1.4125 5.6625 1.85625 5.3625 2.51875 5.25L4.46875 4.925C4.75 4.875 5.09375 4.625 5.225 4.36875L6.3 2.2125C6.6125 1.59375 7.0375 1.25 7.5 1.25C7.9625 1.25 8.3875 1.59375 8.7 2.2125L9.775 4.36875C9.85625 4.53125 10.025 4.6875 10.2063 4.79375L3.475 11.525C3.3875 11.6125 3.2375 11.5312 3.2625 11.4062L3.5875 10Z" fill="#B7D500"/>
<path d="M11.6875 9.03744C11.4625 9.26244 11.3375 9.69369 11.4125 9.99994L11.8438 11.8812C12.025 12.6624 11.9125 13.2499 11.525 13.5312C11.3688 13.6437 11.1813 13.6999 10.9625 13.6999C10.6438 13.6999 10.2688 13.5812 9.85625 13.3374L8.025 12.2499C7.7375 12.0812 7.2625 12.0812 6.975 12.2499L5.14375 13.3374C4.45 13.7437 3.85625 13.8124 3.475 13.5312C3.33125 13.4249 3.225 13.2812 3.15625 13.0937L10.7562 5.49369C11.0437 5.20619 11.45 5.07494 11.8438 5.14369L12.475 5.24994C13.1375 5.36244 13.5813 5.66244 13.725 6.09994C13.8625 6.53744 13.675 7.04369 13.2 7.51869L11.6875 9.03744Z" fill="#B7D500"/>
</svg>
