<svg width="16" height="17" viewBox="0 0 16 17" fill="none" xmlns="http://www.w3.org/2000/svg">
<path d="M3.95035 11.0282C4.02201 10.709 3.89173 10.253 3.66373 10.025L2.08081 8.4421C1.58574 7.94703 1.39032 7.41939 1.53363 6.96341C1.68345 6.50742 2.14595 6.19474 2.83645 6.07749L4.86884 5.73876C5.16197 5.68665 5.52025 5.42608 5.65704 5.15901L6.77747 2.91165C7.10317 2.26675 7.54613 1.90848 8.02817 1.90848C8.51021 1.90848 8.95317 2.26675 9.27887 2.91165L10.3993 5.15901C10.484 5.32837 10.6599 5.49122 10.8488 5.60196L3.8331 12.6176C3.7419 12.7088 3.58556 12.6241 3.61162 12.4939L3.95035 11.0282Z" fill="#BCDB00"/>
<path d="M12.3926 10.025C12.1581 10.2595 12.0278 10.709 12.106 11.0282L12.5555 12.9889C12.7444 13.8032 12.6271 14.4155 12.2232 14.7086C12.0604 14.8259 11.865 14.8845 11.637 14.8845C11.3048 14.8845 10.9139 14.7608 10.484 14.5067L8.57536 13.3733C8.27571 13.1974 7.78064 13.1974 7.48099 13.3733L5.57236 14.5067C4.8493 14.9301 4.23046 15.0018 3.8331 14.7086C3.68328 14.5979 3.57254 14.4481 3.50089 14.2527L11.422 6.33153C11.7217 6.03188 12.1451 5.89509 12.5555 5.96674L13.2134 6.07748C13.9039 6.19473 14.3664 6.50741 14.5162 6.9634C14.6595 7.41938 14.4641 7.94702 13.969 8.44209L12.3926 10.025Z" fill="#BCDB00"/>
</svg>
