<svg width="60" height="60" viewBox="0 0 60 60" fill="none" xmlns="http://www.w3.org/2000/svg">
<path d="M22.5 5C15.95 5 10.625 10.325 10.625 16.875C10.625 23.3 15.65 28.5 22.2 28.725C22.4 28.7 22.6 28.7 22.75 28.725C22.8 28.725 22.825 28.725 22.875 28.725C22.9 28.725 22.9 28.725 22.925 28.725C29.325 28.5 34.35 23.3 34.375 16.875C34.375 10.325 29.05 5 22.5 5Z" fill="#003A5A"/>
<path d="M35.2 35.3752C28.225 30.7252 16.85 30.7252 9.82502 35.3752C6.65002 37.5002 4.90002 40.3752 4.90002 43.4502C4.90002 46.5252 6.65002 49.3752 9.80002 51.4752C13.3 53.8252 17.9 55.0002 22.5 55.0002C27.1 55.0002 31.7 53.8252 35.2 51.4752C38.35 49.3502 40.1 46.5002 40.1 43.4002C40.075 40.3252 38.35 37.4752 35.2 35.3752Z" fill="#003A5A"/>
<path d="M49.975 18.3498C50.375 23.1998 46.925 27.4498 42.15 28.0248C42.125 28.0248 42.125 28.0248 42.1 28.0248H42.025C41.875 28.0248 41.725 28.0248 41.6 28.0748C39.175 28.1998 36.95 27.4248 35.275 25.9998C37.85 23.6998 39.325 20.2498 39.025 16.4998C38.85 14.4748 38.15 12.6248 37.1 11.0498C38.05 10.5748 39.15 10.2748 40.275 10.1748C45.175 9.74976 49.55 13.3998 49.975 18.3498Z" fill="#003A5A"/>
<path d="M54.975 41.475C54.775 43.9 53.225 46 50.625 47.425C48.125 48.8 44.975 49.45 41.85 49.375C43.65 47.75 44.7 45.725 44.9 43.575C45.15 40.475 43.675 37.5 40.725 35.125C39.05 33.8 37.1 32.75 34.975 31.975C40.5 30.375 47.45 31.45 51.725 34.9C54.025 36.75 55.2 39.075 54.975 41.475Z" fill="#003A5A"/>
</svg>
