<svg width="16" height="17" viewBox="0 0 16 17" fill="none" xmlns="http://www.w3.org/2000/svg">
<path d="M3.79542 11.0282C3.86707 10.709 3.73679 10.253 3.5088 10.025L1.92587 8.4421C1.4308 7.94703 1.23538 7.41939 1.37869 6.96341C1.52851 6.50742 1.99101 6.19474 2.68151 6.07749L4.7139 5.73876C5.00704 5.68665 5.36531 5.42608 5.50211 5.15901L6.62253 2.91165C6.94823 2.26675 7.39119 1.90848 7.87323 1.90848C8.35527 1.90848 8.79823 2.26675 9.12394 2.91165L10.2444 5.15901C10.329 5.32837 10.5049 5.49122 10.6938 5.60196L3.67816 12.6176C3.58696 12.7088 3.43063 12.6241 3.45668 12.4939L3.79542 11.0282Z" fill="#BCDB00"/>
<path d="M12.2377 10.025C12.0032 10.2595 11.8729 10.709 11.9511 11.0282L12.4005 12.9889C12.5894 13.8032 12.4722 14.4155 12.0683 14.7086C11.9055 14.8259 11.71 14.8845 11.482 14.8845C11.1498 14.8845 10.759 14.7608 10.329 14.5067L8.42042 13.3733C8.12077 13.1974 7.6257 13.1974 7.32605 13.3733L5.41743 14.5067C4.69436 14.9301 4.07552 15.0018 3.67817 14.7086C3.52834 14.5979 3.4176 14.4481 3.34595 14.2527L11.2671 6.33153C11.5667 6.03188 11.9901 5.89509 12.4005 5.96674L13.0584 6.07748C13.7489 6.19473 14.2114 6.50741 14.3613 6.9634C14.5046 7.41938 14.3092 7.94702 13.8141 8.44209L12.2377 10.025Z" fill="#BCDB00"/>
</svg>
