<svg width="17" height="17" viewBox="0 0 17 17" fill="none" xmlns="http://www.w3.org/2000/svg">
<path d="M4.26021 11.0282C4.33186 10.709 4.20158 10.253 3.97359 10.025L2.39066 8.4421C1.89559 7.94703 1.70017 7.41939 1.84348 6.96341C1.9933 6.50742 2.4558 6.19474 3.1463 6.07749L5.17869 5.73876C5.47183 5.68665 5.8301 5.42608 5.9669 5.15901L7.08732 2.91165C7.41302 2.26675 7.85598 1.90848 8.33802 1.90848C8.82007 1.90848 9.26302 2.26675 9.58873 2.91165L10.7091 5.15901C10.7938 5.32837 10.9697 5.49122 11.1586 5.60196L4.14295 12.6176C4.05176 12.7088 3.89542 12.6241 3.92147 12.4939L4.26021 11.0282Z" fill="#BCDB00"/>
<path d="M12.7025 10.025C12.4679 10.2595 12.3377 10.709 12.4158 11.0282L12.8653 12.9889C13.0542 13.8032 12.937 14.4155 12.5331 14.7086C12.3702 14.8259 12.1748 14.8845 11.9468 14.8845C11.6146 14.8845 11.2238 14.7608 10.7938 14.5067L8.8852 13.3733C8.58555 13.1974 8.09048 13.1974 7.79084 13.3733L5.88221 14.5067C5.15914 14.9301 4.54031 15.0018 4.14295 14.7086C3.99312 14.5979 3.88238 14.4481 3.81073 14.2527L11.7319 6.33153C12.0315 6.03188 12.4549 5.89509 12.8653 5.96674L13.5232 6.07748C14.2137 6.19473 14.6762 6.50741 14.826 6.9634C14.9694 7.41938 14.7739 7.94702 14.2789 8.44209L12.7025 10.025Z" fill="#BCDB00"/>
</svg>
