<svg width="65" height="65" viewBox="0 0 65 65" fill="none" xmlns="http://www.w3.org/2000/svg">
<path d="M22.7229 50.0771V22.5604C22.7229 21.4771 23.0479 20.4208 23.6438 19.5271L31.0375 8.53125C32.2021 6.77084 35.1 5.525 37.5646 6.44584C40.2188 7.33959 41.9792 10.3188 41.4104 12.9729L40.0021 21.8292C39.8938 22.6417 40.1104 23.3729 40.5708 23.9417C41.0313 24.4563 41.7083 24.7813 42.4396 24.7813H53.5708C55.7104 24.7813 57.5521 25.6479 58.6354 27.1646C59.6646 28.6271 59.8542 30.5229 59.1771 32.4458L52.5146 52.7313C51.675 56.0896 48.0188 58.825 44.3896 58.825H33.8271C32.0125 58.825 29.4667 58.2021 28.3021 57.0375L24.8354 54.3563C23.5083 53.3542 22.7229 51.7563 22.7229 50.0771Z" fill="#B50000"/>
<path d="M14.1104 17.2792H11.3208C7.12291 17.2792 5.41666 18.9042 5.41666 22.9125V50.1583C5.41666 54.1667 7.12291 55.7917 11.3208 55.7917H14.1104C18.3083 55.7917 20.0146 54.1667 20.0146 50.1583V22.9125C20.0146 18.9042 18.3083 17.2792 14.1104 17.2792Z" fill="#B50000"/>
</svg>
