<svg width="27" height="27" viewBox="0 0 27 27" fill="none" xmlns="http://www.w3.org/2000/svg">
<path d="M2.25 2.25H4.20751C5.42251 2.25 6.37875 3.29625 6.2775 4.5L5.34375 15.705C5.18625 17.5387 6.63749 19.1137 8.48249 19.1137H20.4638C22.0838 19.1137 23.5012 17.7863 23.625 16.1775L24.2325 7.74001C24.3675 5.87251 22.95 4.35374 21.0712 4.35374H6.54751" stroke="#292D32" stroke-width="1.5" stroke-miterlimit="10" stroke-linecap="round" stroke-linejoin="round"/>
<path d="M18.2813 24.75C19.0579 24.75 19.6875 24.1204 19.6875 23.3438C19.6875 22.5671 19.0579 21.9375 18.2813 21.9375C17.5046 21.9375 16.875 22.5671 16.875 23.3438C16.875 24.1204 17.5046 24.75 18.2813 24.75Z" stroke="#292D32" stroke-width="1.5" stroke-miterlimit="10" stroke-linecap="round" stroke-linejoin="round"/>
<path d="M9.28125 24.75C10.0579 24.75 10.6875 24.1204 10.6875 23.3438C10.6875 22.5671 10.0579 21.9375 9.28125 21.9375C8.5046 21.9375 7.875 22.5671 7.875 23.3438C7.875 24.1204 8.5046 24.75 9.28125 24.75Z" stroke="#292D32" stroke-width="1.5" stroke-miterlimit="10" stroke-linecap="round" stroke-linejoin="round"/>
<path d="M10.125 9H23.625" stroke="#292D32" stroke-width="1.5" stroke-miterlimit="10" stroke-linecap="round" stroke-linejoin="round"/>
</svg>
