<svg width="65" height="65" viewBox="0 0 65 65" fill="none" xmlns="http://www.w3.org/2000/svg">
<path d="M50.2125 11.1583L35.3167 5.57915C33.7729 5.0104 31.2542 5.0104 29.7104 5.57915L14.8146 11.1583C11.9437 12.2417 9.61458 15.6 9.61458 18.6604V40.5979C9.61458 42.7917 11.05 45.6896 12.8104 46.9896L27.7062 58.1208C30.3333 60.0979 34.6396 60.0979 37.2667 58.1208L52.1625 46.9896C53.9229 45.6625 55.3583 42.7917 55.3583 40.5979V18.6604C55.3854 15.6 53.0562 12.2417 50.2125 11.1583ZM41.925 26.325L30.2792 37.9708C29.8729 38.3771 29.3583 38.5667 28.8437 38.5667C28.3292 38.5667 27.8146 38.3771 27.4083 37.9708L23.075 33.5833C22.2896 32.7979 22.2896 31.4979 23.075 30.7125C23.8604 29.9271 25.1604 29.9271 25.9458 30.7125L28.8708 33.6375L39.0812 23.4271C39.8667 22.6416 41.1667 22.6416 41.9521 23.4271C42.7375 24.2125 42.7375 25.5396 41.925 26.325Z" fill="#B50000"/>
</svg>
