<svg width="17" height="17" viewBox="0 0 17 17" fill="none" xmlns="http://www.w3.org/2000/svg">
<path d="M4.41514 11.0282C4.4868 10.709 4.35652 10.253 4.12852 10.025L2.5456 8.4421C2.05053 7.94703 1.85511 7.41939 1.99842 6.96341C2.14824 6.50742 2.61074 6.19474 3.30124 6.07749L5.33363 5.73876C5.62676 5.68665 5.98504 5.42608 6.12183 5.15901L7.24226 2.91165C7.56796 2.26675 8.01092 1.90848 8.49296 1.90848C8.975 1.90848 9.41796 2.26675 9.74366 2.91165L10.8641 5.15901C10.9488 5.32837 11.1247 5.49122 11.3136 5.60196L4.29789 12.6176C4.20669 12.7088 4.05035 12.6241 4.07641 12.4939L4.41514 11.0282Z" fill="#BCDB00"/>
<path d="M12.8574 10.025C12.6229 10.2595 12.4926 10.709 12.5708 11.0282L13.0202 12.9889C13.2092 13.8032 13.0919 14.4155 12.688 14.7086C12.5252 14.8259 12.3298 14.8845 12.1018 14.8845C11.7695 14.8845 11.3787 14.7608 10.9488 14.5067L9.04014 13.3733C8.74049 13.1974 8.24542 13.1974 7.94577 13.3733L6.03715 14.5067C5.31408 14.9301 4.69525 15.0018 4.29789 14.7086C4.14806 14.5979 4.03732 14.4481 3.96567 14.2527L11.8868 6.33153C12.1864 6.03188 12.6099 5.89509 13.0202 5.96674L13.6782 6.07748C14.3687 6.19473 14.8312 6.50741 14.981 6.9634C15.1243 7.41938 14.9289 7.94702 14.4338 8.44209L12.8574 10.025Z" fill="#BCDB00"/>
</svg>
