<svg width="60" height="60" viewBox="0 0 60 60" fill="none" xmlns="http://www.w3.org/2000/svg">
<path d="M55.9 20.675L55.175 13.75C54.125 6.2 50.7 3.125 43.375 3.125H37.475H33.775H26.175H22.475H16.475C9.125 3.125 5.72499 6.2 4.64999 13.825L3.97499 20.7C3.72499 23.375 4.44999 25.975 6.02499 28C7.92499 30.475 10.85 31.875 14.1 31.875C17.25 31.875 20.275 30.3 22.175 27.775C23.875 30.3 26.775 31.875 30 31.875C33.225 31.875 36.05 30.375 37.775 27.875C39.7 30.35 42.675 31.875 45.775 31.875C49.1 31.875 52.1 30.4 53.975 27.8C55.475 25.8 56.15 23.275 55.9 20.675Z" fill="#003A5A"/>
<path d="M28.375 41.6506C25.2 41.9756 22.8 44.6756 22.8 47.8756V54.7256C22.8 55.4006 23.35 55.9506 24.025 55.9506H35.95C36.625 55.9506 37.175 55.4006 37.175 54.7256V48.7506C37.2 43.5256 34.125 41.0506 28.375 41.6506Z" fill="#003A5A"/>
<path d="M53.425 36.0002V43.4502C53.425 50.3502 47.825 55.9502 40.925 55.9502C40.25 55.9502 39.7 55.4002 39.7 54.7252V48.7502C39.7 45.5502 38.725 43.0502 36.825 41.3502C35.15 39.8252 32.875 39.0752 30.05 39.0752C29.425 39.0752 28.8 39.1002 28.125 39.1752C23.675 39.6252 20.3 43.3752 20.3 47.8752V54.7252C20.3 55.4002 19.75 55.9502 19.075 55.9502C12.175 55.9502 6.57501 50.3502 6.57501 43.4502V36.0502C6.57501 34.3002 8.30001 33.1252 9.92501 33.7002C10.6 33.9252 11.275 34.1002 11.975 34.2002C12.275 34.2502 12.6 34.3002 12.9 34.3002C13.3 34.3502 13.7 34.3752 14.1 34.3752C17 34.3752 19.85 33.3002 22.1 31.4502C24.25 33.3002 27.05 34.3752 30 34.3752C32.975 34.3752 35.725 33.3502 37.875 31.5002C40.125 33.3252 42.925 34.3752 45.775 34.3752C46.225 34.3752 46.675 34.3502 47.1 34.3002C47.4 34.2752 47.675 34.2502 47.95 34.2002C48.725 34.1002 49.425 33.8752 50.125 33.6502C51.75 33.1002 53.425 34.3002 53.425 36.0002Z" fill="#003A5A"/>
</svg>
