<svg width="65" height="65" viewBox="0 0 65 65" fill="none" xmlns="http://www.w3.org/2000/svg">
<path d="M15.5458 43.3333C15.8438 42.0062 15.3021 40.1104 14.3542 39.1625L7.77292 32.5812C5.71459 30.5229 4.90209 28.3291 5.49792 26.4333C6.12084 24.5375 8.04375 23.2375 10.9146 22.75L19.3646 21.3416C20.5833 21.125 22.0729 20.0416 22.6417 18.9312L27.3 9.58746C28.6542 6.90621 30.4958 5.41663 32.5 5.41663C34.5042 5.41663 36.3458 6.90621 37.7 9.58746L42.3583 18.9312C42.7104 19.6354 43.4417 20.3125 44.2271 20.7729L15.0583 49.9416C14.6792 50.3208 14.0292 49.9687 14.1375 49.427L15.5458 43.3333Z" fill="#B50000"/>
<path d="M50.6458 39.1625C49.6708 40.1375 49.1292 42.0063 49.4542 43.3333L51.3229 51.4854C52.1083 54.8708 51.6208 57.4167 49.9417 58.6354C49.2646 59.1229 48.4521 59.3667 47.5042 59.3667C46.1229 59.3667 44.4979 58.8521 42.7104 57.7958L34.775 53.0833C33.5292 52.3521 31.4708 52.3521 30.225 53.0833L22.2896 57.7958C19.2833 59.5563 16.7104 59.8542 15.0583 58.6354C14.4354 58.175 13.975 57.5521 13.6771 56.7396L46.6104 23.8063C47.8562 22.5604 49.6167 21.9917 51.3229 22.2896L54.0583 22.75C56.9292 23.2375 58.8521 24.5375 59.475 26.4333C60.0708 28.3292 59.2583 30.5229 57.2 32.5813L50.6458 39.1625Z" fill="#B50000"/>
</svg>
